<svg data-name="Layer 1" xmlns="http://www.w3.org/2000/svg" viewBox="0 0 550.38 866.66"><path d="M536.96 672.34c29.71 60.73 9 121-51.68 150.74l-89.06 43.58-53.49-109.3 27.32-13.37c32.39-15.85 36-31.44 19.21-65.85l-73.8-150.8c-39.12-80-11.15-110 26.36-135.83-43.45 13.74-84.3 17.42-123.43-62.53l-73.8-150.8c-16.84-34.41-31.39-41.09-63.78-25.24l-27.32 13.37L0 57.01l89.06-43.58c60.72-29.72 121-9 150.73 51.68l82.22 168c30.71 62.75 59.86 71.06 120.58 41.34l53.49 109.3c-60.72 29.72-72 57.84-41.34 120.59z" fill="#7400ff"/></svg>