<svg xmlns="http://www.w3.org/2000/svg" width="24" height="24"><path d="M22.226 0C23.206 0 24 .77 24 1.72v20.561c0 .95-.794 1.719-1.774 1.719H1.774C.794 24 0 23.23 0 22.281V1.72C0 .771.794.001 1.774.001h20.452zM7.276 9.253H3.65V20.09h3.626V9.253zm8.898-.254c-1.87 0-2.738.994-3.227 1.727l-.041.061V9.253H9.282c.013.274.018 1.186.02 2.373v1.94c-.003 2.545-.015 5.41-.02 6.269v.256h3.624v-6.052c0-.324.024-.648.12-.879.262-.647.858-1.317 1.86-1.317 1.311 0 1.836.993 1.836 2.45v5.797h3.625v-6.213c0-3.329-1.789-4.878-4.173-4.878zM5.487 4.029c-1.24 0-2.05.809-2.05 1.872 0 1.04.786 1.873 2.003 1.873h.023c1.264 0 2.051-.833 2.051-1.873-.024-1.063-.787-1.872-2.027-1.872z"/></svg>